<svg width="24" height="19" viewBox="0 0 24 19" fill="none" xmlns="http://www.w3.org/2000/svg">
<path d="M14.7873 15.3937C14.7702 15.3937 14.7535 15.3922 14.7368 15.3919V18.7994L14.7873 18.8002C17.6182 18.8002 20.1403 17.4175 21.7799 15.2621L19.1233 13.2891C18.0763 14.5752 16.5215 15.3937 14.7873 15.3937Z" fill="#0ECC5F"/>
<path d="M7.39374 4.10437C5.78226 1.62669 3.07235 0 0 0V3.40721C3.14609 3.40721 5.70539 6.09571 5.70539 9.40025C5.70539 12.7048 3.14609 15.3937 0 15.3937V18.8005C3.07235 18.8005 5.78226 17.1738 7.39374 14.6961C8.84939 16.9338 11.201 18.4771 13.9061 18.7552V15.3217C11.1774 14.8752 9.08209 12.3902 9.08209 9.40025C9.08209 6.41031 11.1774 3.92496 13.9064 3.47883V0.0453077C11.201 0.323 8.84904 1.86675 7.39374 4.10437Z" fill="#2B7A39"/>
<path d="M23.9882 8.95119C23.9833 8.84815 23.975 8.74621 23.9673 8.6439C23.9642 8.60408 23.9624 8.56352 23.9586 8.52442C23.9471 8.39288 23.9322 8.26281 23.9155 8.13273L23.9127 8.11154C23.8948 7.97392 23.8739 7.83674 23.8501 7.70012C23.088 3.32062 19.4397 0 15.0501 0L15 0.000730769V3.40831C15.0167 3.40831 15.0334 3.40721 15.0504 3.40721C17.6341 3.40721 19.8209 5.22135 20.5203 7.70048H15.0553L15.0529 7.70633V11.1004H23.8508C23.9277 10.6619 23.9743 10.2125 23.991 9.75504C23.9962 9.66187 23.9986 9.54604 23.9986 9.40025C23.9986 9.24971 23.9951 9.10027 23.9882 8.95119Z" fill="#0ECC5F"/>
</svg>
