<svg width="110" height="83" viewBox="0 0 110 83" fill="none" xmlns="http://www.w3.org/2000/svg">
<path d="M67.776 67.246C67.6978 67.246 67.6213 67.2396 67.5448 67.238V82.1237L67.776 82.1269C80.7512 82.1269 92.3107 76.0871 99.8258 66.6714L87.6493 58.0521C82.8507 63.6706 75.7247 67.246 67.776 67.246Z" fill="#0ECC5F"/>
<path d="M33.888 17.9296C26.502 7.10608 14.0816 0 0 0V14.8841C14.4196 14.8841 26.1497 26.6286 26.1497 41.0643C26.1497 55.4999 14.4196 67.246 0 67.246V82.1285C14.0816 82.1285 26.502 75.0224 33.888 64.1989C40.5597 73.9738 51.3381 80.7159 63.7362 81.9306V66.9315C51.2297 64.981 41.6262 54.1256 41.6262 41.0643C41.6262 28.0029 51.2297 17.1459 63.7378 15.197V0.197923C51.3381 1.411 40.5581 8.15475 33.888 17.9296Z" fill="#2B7A39"/>
<path d="M108.741 39.1026C108.718 38.6525 108.68 38.2071 108.645 37.7602C108.631 37.5862 108.623 37.4091 108.605 37.2383C108.552 36.6637 108.484 36.0954 108.407 35.5272L108.395 35.4346C108.312 34.8334 108.217 34.2342 108.108 33.6373C104.615 14.5058 87.8932 0 67.7744 0L67.5448 0.00319231V14.8889C67.6213 14.8889 67.6978 14.8841 67.776 14.8841C79.6177 14.8841 89.6405 22.809 92.8464 33.6389H67.7983L67.7871 33.6645V48.4911H108.111C108.463 46.5758 108.677 44.6125 108.753 42.6141C108.777 42.2071 108.788 41.7011 108.788 41.0642C108.788 40.4066 108.772 39.7538 108.741 39.1026Z" fill="#0ECC5F"/>
</svg>
