<svg width="14" height="8" viewBox="0 0 14 8" fill="none" xmlns="http://www.w3.org/2000/svg">
<path d="M7 7.82422C7.23926 7.81738 7.45801 7.72852 7.63574 7.53711L12.8311 2.21875C12.9814 2.06836 13.0635 1.87695 13.0635 1.65137C13.0635 1.2002 12.708 0.837891 12.2568 0.837891C12.0381 0.837891 11.8262 0.926758 11.6689 1.08398L7.00684 5.87598L2.33105 1.08398C2.17383 0.933594 1.96875 0.837891 1.74316 0.837891C1.29199 0.837891 0.936523 1.2002 0.936523 1.65137C0.936523 1.87695 1.01855 2.06836 1.16895 2.21875L6.37109 7.53711C6.55566 7.72852 6.76074 7.82422 7 7.82422Z" fill="white"/>
</svg>
