<svg xmlns="http://www.w3.org/2000/svg" viewBox="0 0 279 279"><defs><style>.cls-1{fill:#0ecc5f;}</style></defs><g id="Layer_2" data-name="Layer 2"><g id="Layer_1-2" data-name="Layer 1"><path class="cls-1" d="M139.5,0C61.61,0,0,61.61,0,139.5a139.5,139.5,0,0,0,279,0C279,61.61,217.39,0,139.5,0ZM239.79,158H139.59V121.1h62.29A65,65,0,1,0,189,181.7l30.27,21.4a102,102,0,1,1,20.58-82c.27,1.48.51,3,.72,4.46a.88.88,0,0,0,0,.23c.19,1.41.36,2.82.49,4.25,0,.42.06.86.1,1.29.09,1.11.18,2.22.23,3.34.08,1.61.11,3.3.11,4.89s0,2.84-.09,3.85A102.18,102.18,0,0,1,239.79,158Z"/></g></g></svg>