<svg xmlns="http://www.w3.org/2000/svg" viewBox="0 0 258.5 258.5"><defs><style>.cls-1{fill:#0ecc5f;}</style></defs><g id="Layer_2" data-name="Layer 2"><g id="Layer_1_copy" data-name="Layer 1 copy"><path class="cls-1" d="M258.34,123.08c-.06-1.42-.18-2.82-.29-4.23-.05-.55-.08-1.1-.13-1.64-.16-1.81-.38-3.6-.62-5.39a2.54,2.54,0,0,1,0-.29c-.26-1.9-.57-3.78-.91-5.65h0a129.28,129.28,0,1,0-26.1,104l-38.37-27.13a82.37,82.37,0,1,1,16.38-76.84H129.32l0,.08v46.67H256.37a130.88,130.88,0,0,0,2-18.5c.07-1.28.11-2.87.11-4.88S258.44,125.12,258.34,123.08Z"/></g></g></svg>