<svg xmlns="http://www.w3.org/2000/svg" viewBox="0 0 279 279"><defs><style>.cls-1{fill:#2775ca;}.cls-2{fill:#fff;}</style></defs><g id="Layer_2" data-name="Layer 2"><g id="Layer_1-2" data-name="Layer 1"><path class="cls-1" d="M139.5,279A139.17,139.17,0,0,0,279,139.5C279,61.61,217.39,0,139.5,0S0,61.61,0,139.5A139.17,139.17,0,0,0,139.5,279Z"/><path class="cls-2" d="M177.86,161.59c0-19.77-11.62-26.74-36-30.23-17.44-2.32-20.93-7-20.93-15.11s5.81-12.79,17.44-12.79c10.46,0,16.27,3.49,18.6,11.63,0,1.16,2.32,2.32,3.49,2.32h9.3q3.48,0,3.48-3.49h0a28.4,28.4,0,0,0-25.57-23.25V75.56c0-2.32-1.16-3.49-4.65-4.65h-8.14c-2.32,0-3.49,1.16-4.65,4.65V88.35c-17.44,2.33-27.9,14-27.9,27.9,0,18.6,11.63,26.74,36,29.06,16.27,2.33,20.92,5.81,20.92,15.12s-8.13,15.11-18.6,15.11c-15.11,0-19.76-5.81-22.08-15.11a3.71,3.71,0,0,0-3.49-3.49H104.62q-3.48,0-3.48,3.49h0c2.32,13.95,11.62,24.41,30.22,27.9v13.95c0,2.32,1.16,3.48,4.65,4.65h8.14c2.32,0,3.49-1.17,4.65-4.65V188.33c17.44,1.16,29.06-11.63,29.06-26.74Z"/><path class="cls-2" d="M110.44,222a85.59,85.59,0,0,1-51.15-111.6c8.13-24.42,27.9-43,51.15-51.15,2.32-1.17,3.49-2.33,3.49-5.82V45.34c0-2.33-1.17-3.49-3.49-4.65h-2.33C53.48,58.12,23.25,116.25,40.69,172.05a102.89,102.89,0,0,0,67.42,67.43c2.33,1.16,4.65,0,4.65-2.33V226.69C113.93,225.52,112.76,223.2,110.44,222ZM172.05,41.85c-2.32-1.16-4.65,0-4.65,2.32V54.64a6.39,6.39,0,0,0,3.49,5.81A85.59,85.59,0,0,1,222,172.05c-8.14,24.41-27.9,43-51.15,51.15-2.33,1.16-3.49,2.32-3.49,5.81v8.14c0,2.33,1.16,3.49,3.49,4.65h2.32c54.64-17.44,84.87-75.56,67.43-131.36C229,76.72,203.44,52.31,172.05,41.85Z"/></g></g></svg>