<svg xmlns="http://www.w3.org/2000/svg" xmlns:xlink="http://www.w3.org/1999/xlink" viewBox="0 0 1366 768"><defs><style>.cls-1{fill:none;}.cls-2{fill:#333;}.cls-3{opacity:0.2;}.cls-4{clip-path:url(#clip-path);}.cls-5{fill:#343434;}.cls-6{fill:#8c8c8c;}.cls-7{fill:#3c3c3b;}.cls-8{fill:#141414;}.cls-9{fill:#393939;}</style><clipPath id="clip-path"><rect class="cls-1" width="1366" height="768"/></clipPath></defs><g id="Layer_5" data-name="Layer 5"><rect class="cls-2" width="1366" height="768"/></g><g id="Layer_2" data-name="Layer 2"><g class="cls-3"><g class="cls-4"><polygon class="cls-5" points="689.94 -1382.09 670.99 -1317.68 670.99 551.26 689.94 570.17 1557.48 57.37 689.94 -1382.09"/><polygon class="cls-6" points="689.95 -1382.09 -177.59 57.37 689.95 570.18 689.95 -336.95 689.95 -1382.09"/><polygon class="cls-7" points="689.94 734.43 679.26 747.45 679.26 1413.21 689.94 1444.4 1558 221.89 689.94 734.43"/><polygon class="cls-6" points="689.95 1444.39 689.95 734.42 -177.59 221.88 689.95 1444.39"/><polygon class="cls-8" points="689.94 570.17 1557.47 57.38 689.94 -336.94 689.94 570.17"/><polygon class="cls-9" points="-177.59 57.38 689.94 570.17 689.94 -336.94 -177.59 57.38"/></g></g></g></svg>